<svg width="26" height="22" viewBox="0 0 26 22" fill="none" xmlns="http://www.w3.org/2000/svg">
<path d="M0 1C7.75036 1 7.75036 1 7.75036 9.9143C7.75036 13.4 8.75 14.0286 11.9778 14.0286H18.6713C21.1374 14.0286 22.8988 9.91427 24.308 6.48569C25.7171 3.05712 25.0125 3.39997 21.8419 3.39997H13.1282M12.6824 18.9429C12.6824 20.079 11.7361 21 10.5687 21C9.40129 21 8.45494 20.079 8.45494 18.9429C8.45494 17.8067 9.40129 16.8857 10.5687 16.8857C11.7361 16.8857 12.6824 17.8067 12.6824 18.9429ZM19.7282 18.9429C19.7282 20.079 18.7818 21 17.6145 21C16.4471 21 15.5007 20.079 15.5007 18.9429C15.5007 17.8067 16.4471 16.8857 17.6145 16.8857C18.7818 16.8857 19.7282 17.8067 19.7282 18.9429Z" stroke="white" stroke-width="2"/>
</svg>
