<svg width="32" height="37" viewBox="0 0 32 37" fill="none" xmlns="http://www.w3.org/2000/svg">
<path d="M5.99389 18.2377H3.4137V2.29993C3.4137 1.57394 4.02327 1 4.75383 1L27.2465 1.00028C27.9771 1.00028 28.5866 1.57421 28.5866 2.30021V18.2381H26.0572M5.99389 18.2377L5.99395 17.7628V11.0502C5.99395 9.45503 7.2994 8.15002 8.91433 8.15002L23.1366 8.14982C24.7516 8.14982 26.0569 9.45482 26.0569 11.05V17.7626L26.0572 18.2381M5.99389 18.2377V18.4503M2.46653 28.4396C2.44762 27.7368 2.37595 23.5112 2.47923 22.3002C2.51902 21.8339 2.7806 21.4143 3.13673 21.0376C3.4928 20.6609 3.94659 20.3136 4.38821 20.0251C5.2012 19.4938 5.87255 19.2045 5.99389 19.1501V18.4503M2.46653 28.4396H2.32741C1.59511 28.4396 1 29.0281 1 29.7521V29.7751C1 30.4992 1.59513 31.0876 2.32741 31.0876H4.94445M2.46653 28.4396L2.96002 28.4396H29.0914L29.5716 28.4396M4.94445 31.0876V34.3125C4.94445 35.2427 5.71033 36 6.65112 36H7.23271C8.17349 36 8.93937 35.2427 8.93937 34.3125V31.0876H22.6563V34.3125C22.6563 35.2427 23.4222 36 24.363 36H24.9446C25.8853 36 26.6512 35.2427 26.6512 34.3125V31.0876M4.94445 31.0876H26.6512M26.6512 31.0876H29.6726C30.4049 31.0876 31 30.4992 31 29.7751V29.7521C31 29.0281 30.4049 28.4396 29.6726 28.4396H29.5716M29.5716 28.4396C29.5702 27.8049 29.5631 23.3256 29.5716 22.3128C29.5755 21.846 29.3179 21.4331 28.9649 21.0754C28.6119 20.7174 28.1522 20.4029 27.7007 20.1379C26.8742 19.6529 26.191 19.4015 26.0572 19.3505V18.4503M26.0572 18.2381V18.4503M10.7068 24.2114H20.935M5.43785 31.0873H8.45922M23.1496 31.0873H26.171M5.99389 18.4503H9.69827H22.3027H26.0572M6.94239 22.4821C5.89802 22.4821 5.05881 23.3266 5.05881 24.3571C5.05881 25.3875 5.90026 26.2195 6.94239 26.2195C7.98453 26.2195 8.83869 25.3875 8.83869 24.3571C8.83869 23.3266 7.98677 22.4821 6.94239 22.4821ZM24.6542 22.4821C23.6098 22.4821 22.7706 23.3266 22.7706 24.3571C22.7706 25.3875 23.6121 26.2195 24.6542 26.2195C25.6963 26.2195 26.5505 25.3875 26.5505 24.3571C26.5505 23.3266 25.6986 22.4821 24.6542 22.4821Z" stroke="black"/>
</svg>
