<svg width="32" height="45" viewBox="0 0 32 45" fill="none" xmlns="http://www.w3.org/2000/svg">
<path d="M1.08301 9.79163V6.41877C1.08301 5.47653 1.56397 4.72919 2.20728 4.21678C2.82411 3.7253 3.5932 3.41471 4.36162 3.13934C4.37173 3.12853 4.38218 3.11808 4.39299 3.10832C4.39752 3.10692 4.40414 3.10971 4.40867 3.10832C4.424 3.10239 4.43969 3.09716 4.45537 3.09263C4.48011 3.08357 4.50834 3.08566 4.53343 3.07694C4.54876 3.07102 4.56445 3.06614 4.58013 3.06161C8.43962 1.70629 12.2755 1.00809 16.0869 1.00007C19.9382 0.992039 23.7676 1.67431 27.547 3.09299C28.3346 3.3889 29.1354 3.72562 29.7794 4.23281C30.4238 4.74003 30.9037 5.47515 30.9037 6.4191V9.79163M1.08301 9.79163C1.08231 9.80732 1.08231 9.82301 1.08301 9.83869V21.6603M1.08301 9.79163H15.9933M7.34369 36.8394H4.62721C2.7018 36.8394 1.08301 35.3443 1.08301 33.4818V21.6603M7.34369 36.8394L4.5 39.7198M7.34369 36.8394L22.9249 36.8396M24.3617 36.8393L26.9534 39.3536C26.9942 39.3794 27.0312 39.4108 27.0625 39.4474L27.0939 39.4784V39.4937L27.3268 39.7198M24.3617 36.8393H27.3595C29.2849 36.8393 30.9037 35.3442 30.9037 33.4818V21.6603M24.3617 36.8393L22.9249 36.8396M22.9249 36.8396C22.9298 36.8448 22.935 36.85 22.9403 36.8549M30.9037 9.79163V21.6603M30.9037 9.79163H15.9933M1.08301 21.6603H15.9933M30.9037 21.6603H15.9933M15.9933 9.79163V21.6603M4.5 39.7198L1.17677 43.0859C1.08652 43.1615 1.02553 43.2668 1.00497 43.3825C0.998345 43.4292 0.998345 43.4767 1.00497 43.5234V43.5387C1.00462 43.5491 1.00462 43.5593 1.00497 43.5697C1.01368 43.6185 1.02936 43.6659 1.05201 43.7102C1.05689 43.7154 1.06212 43.7206 1.06769 43.7259C1.07222 43.7363 1.07745 43.7468 1.08303 43.7569C1.09766 43.7733 1.11335 43.7893 1.13007 43.8036C1.13495 43.8144 1.14018 43.8245 1.1454 43.8346C1.15063 43.835 1.15586 43.835 1.16109 43.8346C1.1712 43.8454 1.18165 43.8559 1.19245 43.8657H1.20814C1.21301 43.8761 1.21824 43.8866 1.22382 43.8967H1.23915C1.24961 43.9023 1.26006 43.9075 1.27052 43.912C1.27574 43.9176 1.28062 43.9225 1.2862 43.9277C1.2963 43.9333 1.30676 43.9385 1.31721 43.943C1.32244 43.9434 1.32767 43.9434 1.3329 43.943C1.343 43.9486 1.35346 43.9539 1.36426 43.9587H1.37994C1.39005 43.9591 1.4005 43.9591 1.41096 43.9587H1.42664C1.44197 43.9647 1.45766 43.9699 1.47334 43.9741H1.5047C1.51516 43.9744 1.52561 43.9744 1.53607 43.9741H30.3415C30.5171 44.033 30.7105 43.9901 30.8447 43.8625C30.9789 43.7349 31.0315 43.5436 30.9813 43.3651C30.9817 43.355 30.9817 43.3445 30.9813 43.3341C30.9764 43.3289 30.9712 43.3236 30.9656 43.3187C30.966 43.3083 30.966 43.2982 30.9656 43.2877C30.9608 43.2825 30.9556 43.2773 30.9504 43.2721C30.9406 43.2561 30.9304 43.2403 30.9189 43.2253V43.2096C30.9092 43.1988 30.8987 43.1887 30.8879 43.1786V43.1633C30.8775 43.1577 30.867 43.1525 30.8565 43.1479C30.8513 43.1424 30.8461 43.1375 30.8409 43.1323C30.836 43.127 30.8308 43.1218 30.8252 43.1169C30.8022 43.088 30.776 43.0618 30.7471 43.0388L27.3268 39.7198M4.5 39.7198H27.3268M8.5 27.0001C7.12518 27.0001 6 28.1252 6 29.5001C6 30.8749 7.12518 32.0001 8.5 32.0001C9.87482 32.0001 11 30.8749 11 29.5001C11 28.1252 9.87482 27.0001 8.5 27.0001ZM23.5 27.0001C22.1252 27.0001 21 28.1252 21 29.5001C21 30.8749 22.1252 32.0001 23.5 32.0001C24.8748 32.0001 26 30.8749 26 29.5001C26 28.1252 24.8748 27.0001 23.5 27.0001Z" stroke="black"/>
</svg>
