<svg width="32" height="45" viewBox="0 0 32 45" fill="none" xmlns="http://www.w3.org/2000/svg">
<path d="M1.08301 9.79151V6.41865C1.08301 5.4764 1.56397 4.72907 2.20728 4.21666C2.82411 3.72518 3.5932 3.41459 4.36162 3.13922C4.37173 3.12841 4.38218 3.11795 4.39299 3.10819C4.39752 3.1068 4.40414 3.10959 4.40867 3.10819C4.424 3.10227 4.43969 3.09704 4.45537 3.09251C4.48011 3.08344 4.50834 3.08554 4.53343 3.07682C4.54876 3.0709 4.56445 3.06602 4.58013 3.06148C8.43962 1.70617 12.2755 1.00797 16.0869 0.999948C19.9382 0.991917 23.7676 1.67419 27.547 3.09287C28.3346 3.38878 29.1354 3.7255 29.7794 4.23268C30.4238 4.7399 30.9037 5.47503 30.9037 6.41897V9.79151M1.08301 9.79151C1.08231 9.8072 1.08231 9.82288 1.08301 9.83857V21.6601M1.08301 9.79151H15.9933M7.34369 36.8392H4.62721C2.7018 36.8392 1.08301 35.3442 1.08301 33.4817V21.6601M7.34369 36.8392L4.5 39.7196M7.34369 36.8392L22.9249 36.8395M24.3617 36.8392L26.9534 39.3535C26.9942 39.3793 27.0312 39.4107 27.0625 39.4473L27.0939 39.4783V39.4936L27.3268 39.7196M24.3617 36.8392H27.3595C29.2849 36.8392 30.9037 35.3441 30.9037 33.4817V21.6601M24.3617 36.8392L22.9249 36.8395M22.9249 36.8395C22.9298 36.8447 22.935 36.8499 22.9403 36.8548M30.9037 9.79151V21.6601M30.9037 9.79151H15.9933M1.08301 21.6601H15.9933M30.9037 21.6601H15.9933M15.9933 9.79151V21.6601M4.5 39.7196L1.17677 43.0858C1.08652 43.1614 1.02553 43.2667 1.00497 43.3824C0.998345 43.4291 0.998345 43.4765 1.00497 43.5232V43.5386C1.00462 43.549 1.00462 43.5591 1.00497 43.5696C1.01368 43.6184 1.02936 43.6658 1.05201 43.7101C1.05689 43.7153 1.06212 43.7205 1.06769 43.7258C1.07222 43.7362 1.07745 43.7467 1.08303 43.7568C1.09766 43.7732 1.11335 43.7892 1.13007 43.8035C1.13495 43.8143 1.14018 43.8244 1.1454 43.8345C1.15063 43.8349 1.15586 43.8349 1.16109 43.8345C1.1712 43.8453 1.18165 43.8558 1.19245 43.8655H1.20814C1.21301 43.876 1.21824 43.8865 1.22382 43.8966H1.23915C1.24961 43.9021 1.26006 43.9074 1.27052 43.9119C1.27574 43.9175 1.28062 43.9224 1.2862 43.9276C1.2963 43.9332 1.30676 43.9384 1.31721 43.9429C1.32244 43.9433 1.32767 43.9433 1.3329 43.9429C1.343 43.9485 1.35346 43.9537 1.36426 43.9586H1.37994C1.39005 43.959 1.4005 43.959 1.41096 43.9586H1.42664C1.44197 43.9645 1.45766 43.9698 1.47334 43.9739H1.5047C1.51516 43.9743 1.52561 43.9743 1.53607 43.9739H30.3415C30.5171 44.0329 30.7105 43.99 30.8447 43.8624C30.9789 43.7348 31.0315 43.5435 30.9813 43.365C30.9817 43.3549 30.9817 43.3444 30.9813 43.334C30.9764 43.3287 30.9712 43.3235 30.9656 43.3186C30.966 43.3082 30.966 43.2981 30.9656 43.2876C30.9608 43.2824 30.9556 43.2772 30.9504 43.272C30.9406 43.256 30.9304 43.2402 30.9189 43.2252V43.2095C30.9092 43.1987 30.8987 43.1886 30.8879 43.1785V43.1632C30.8775 43.1576 30.867 43.1523 30.8565 43.1478C30.8513 43.1422 30.8461 43.1374 30.8409 43.1321C30.836 43.1269 30.8308 43.1217 30.8252 43.1168C30.8022 43.0879 30.776 43.0617 30.7471 43.0387L27.3268 39.7196M4.5 39.7196H27.3268M8.5 26.9999C7.12518 26.9999 6 28.1251 6 29.4999C6 30.8748 7.12518 31.9999 8.5 31.9999C9.87482 31.9999 11 30.8748 11 29.4999C11 28.1251 9.87482 26.9999 8.5 26.9999ZM23.5 26.9999C22.1252 26.9999 21 28.1251 21 29.4999C21 30.8748 22.1252 31.9999 23.5 31.9999C24.8748 31.9999 26 30.8748 26 29.4999C26 28.1251 24.8748 26.9999 23.5 26.9999Z" stroke="black"/>
</svg>
