<svg width="32" height="41" viewBox="0 0 32 41" fill="none" xmlns="http://www.w3.org/2000/svg">
<path d="M2.99982 31.4997H1V3.49998C1 2.1216 2.12161 1 3.5 1H28.5C29.8784 1 31 2.1216 31 3.49998V31.4997H29.0008M2.99982 31.4997V32.4996M2.99982 31.4997L3.00017 28.4999M2.99982 32.4996C2.17288 32.4996 1.49973 33.1728 1.49973 33.9997C1.49973 34.8266 2.17287 35.4998 2.99982 35.4998H3.49996M2.99982 32.4996H8.49973M3.49996 35.4998V38.4999C3.49996 39.3269 4.1731 40 5.00005 40H8.00023C8.82717 40 9.50032 39.3269 9.50032 38.4999V35.4998M3.49996 35.4998H9.50032M9.50032 35.4998H22.5003M22.5003 35.4998V38.4999C22.5003 39.3269 23.1735 40 24.0004 40H27.0006C27.8275 40 28.5007 39.3269 28.5007 38.4999V35.4998M22.5003 35.4998H28.5007M28.5007 35.4998H29.0008C29.8278 35.4998 30.5009 34.8266 30.5009 33.9997C30.5009 33.1728 29.8278 32.4996 29.0008 32.4996M29.0008 32.4996V31.4997M29.0008 32.4996H23.4996M29.0008 31.4997L29.0004 28.4999M8.49973 32.4996V31.7083L5.29134 28.4999H3.00017M8.49973 32.4996H23.4996M23.4996 32.4996V31.7083L26.7079 28.4999H29.0004M23.4996 32.4996L27.9995 32.5M3 25L3.00027 15.5C3.00027 14.1216 4.12188 13 5.50027 13H26.5003C27.8787 13 29.0003 14.1216 29.0003 15.5L29 25M3 25H29M3 25L3.00017 28.4999M29 25L29.0004 28.4999M20 30H12M12 28H20M7 4H25" stroke="black"/>
</svg>
