<svg width="42" height="52" viewBox="0 0 42 52" fill="none" xmlns="http://www.w3.org/2000/svg">
<path d="M22.8563 31.933C22.7812 31.9533 22.7076 31.9726 22.6341 31.9929C22.1379 32.1278 21.6553 32.259 21.1904 32.3762L20.5633 32.5351C19.3018 32.8538 18.0121 33.1793 16.7385 33.5668M22.8563 31.933C21.613 30.8815 20.5268 29.6664 19.6628 28.3523C19.4729 28.0633 19.2908 27.7752 19.116 27.4872M22.8563 31.933L25.1144 31.3528C26.8653 30.9445 28.2286 30.7617 29.4932 30.7617C30.6744 30.7617 31.7137 30.9262 32.6706 31.2648C32.6951 31.2736 35.1702 32.2153 35.2724 33.683C35.2928 33.9601 35.2448 34.6528 34.3808 35.1017C33.4214 35.6012 32.0033 35.7356 30.4068 35.5038C28.5113 35.2293 26.5679 34.4809 24.7606 33.3335L22.8563 31.933ZM16.7385 33.5668C17.2227 32.4012 17.6724 31.2231 18.1127 30.0711C18.4388 29.2185 18.7717 28.3471 19.116 27.4872M16.7385 33.5668L14.3766 34.3809C12.3236 35.1918 10.6374 36.1752 9.23186 37.3824C8.311 38.172 7.20128 39.3788 7.13763 40.6386C7.10685 41.2319 7.31033 41.7761 7.72458 42.2121C8.1644 42.6751 8.71743 42.9188 9.32525 42.9194C11.3329 42.9194 13.2648 40.1657 13.6311 39.6137C14.3688 38.5038 15.0591 37.2658 15.7357 35.8377L16.7385 33.5668ZM19.116 27.4872L17.9818 25.3982C16.4176 22.1206 16.1469 19.3738 17.1773 17.2269C17.7548 16.0222 18.4654 15.4123 19.2903 15.4123C20.4929 15.4123 21.3772 16.7274 21.4894 18.6852C21.6282 21.1269 20.8633 23.3071 20.0139 25.3346L19.116 27.4872ZM39.0915 15.5842H31.0725C27.3635 15.5842 26.3843 12.5228 26.3843 10.9056V2.8479V1M26.3843 1H27.1382L28.1639 2.02916L28.2249 2.08853L41 14.8946V15.5832M26.3843 1H5.68931C4.06725 1 1 1.98176 1 5.69631V46.3042C1 47.9282 1.98033 51 5.68931 51H36.3112C37.9327 50.9995 41 50.0182 41 46.3037V15.5832M39.0863 15.5832H41" stroke="#016A90"/>
</svg>
