<svg width="62" height="75" viewBox="0 0 62 75" fill="none" xmlns="http://www.w3.org/2000/svg">
<path d="M33 46C33 48.2091 31.2091 50 29 50C26.7909 50 25 48.2091 25 46C25 43.7909 26.7909 42 29 42C31.2091 42 33 43.7909 33 46Z" fill="#80B5C8"/>
<path d="M18 13H5V18.5M18 13H28M18 13V20.2434M28 13V5.5H11.5V1H61V5.5H45V13M28 13H45M45 13H56V23L51.836 29.7938M18 20.2434V46C18 52.0751 22.9249 57 29 57C32.9421 57 36.3999 54.9263 38.342 51.8103L51.836 29.7938M18 20.2434C8.00424 24.5179 1 34.441 1 46C1 61.464 13.536 74 29 74C44.464 74 57 61.464 57 46C57 39.9606 55.0879 34.3677 51.836 29.7938M33 46C33 48.2091 31.2091 50 29 50C26.7909 50 25 48.2091 25 46C25 43.7909 26.7909 42 29 42C31.2091 42 33 43.7909 33 46Z" stroke="#016A90"/>
</svg>
