<svg width="62" height="73" viewBox="0 0 62 73" fill="none" xmlns="http://www.w3.org/2000/svg">
<path d="M28.2727 1L28.5764 0.60278L28.2727 0.370626L27.9691 0.60278L28.2727 1ZM55.5455 11.3658H56.0455V10.9664L55.6559 10.8781L55.5455 11.3658ZM55.0455 19.3117C55.0455 19.5878 55.2693 19.8117 55.5455 19.8117C55.8216 19.8117 56.0455 19.5878 56.0455 19.3117H55.0455ZM28.2134 63.8341C28.4876 63.8669 28.7364 63.6712 28.7692 63.397C28.802 63.1228 28.6063 62.874 28.3321 62.8412L28.2134 63.8341ZM11.1089 56.5225L11.4241 56.1344L11.4241 56.1344L11.1089 56.5225ZM1 38.0547H0.5V38.0958L0.506687 38.1362L1 38.0547ZM1 11.3658L0.889591 10.8781L0.5 10.9664V11.3658H1ZM16.0765 34.6202C15.9011 34.4069 15.586 34.3763 15.3728 34.5517C15.1595 34.7272 15.1288 35.0423 15.3043 35.2555L16.0765 34.6202ZM22.3414 43.0224L21.9553 43.3401L22.3342 43.8006L22.7215 43.3473L22.3414 43.0224ZM33.3282 30.9352C33.5076 30.7253 33.4828 30.4097 33.2729 30.2303C33.0629 30.0509 32.7473 30.0756 32.5679 30.2856L33.3282 30.9352ZM27.9691 1.39722C37.1707 8.43179 47.0072 9.94535 55.435 11.8535L55.6559 10.8781C47.15 8.95237 37.5662 7.47542 28.5764 0.60278L27.9691 1.39722ZM55.0455 11.3658V19.3117H56.0455V11.3658H55.0455ZM28.3321 62.8412C22.2576 62.1152 16.2463 60.0514 11.4241 56.1344L10.7937 56.9106C15.7981 60.9756 22.0026 63.0918 28.2134 63.8341L28.3321 62.8412ZM11.4241 56.1344C6.58503 52.2038 2.88397 46.391 1.49331 37.9732L0.506687 38.1362C1.93501 46.782 5.75489 52.8179 10.7937 56.9106L11.4241 56.1344ZM1.5 38.0547V11.3658H0.5V38.0547H1.5ZM1.11041 11.8535C9.53824 9.94535 19.3748 8.43179 28.5764 1.39722L27.9691 0.60278C18.9792 7.47542 9.39543 8.95237 0.889591 10.8781L1.11041 11.8535ZM15.3043 35.2555L21.9553 43.3401L22.7276 42.7048L16.0765 34.6202L15.3043 35.2555ZM22.7215 43.3473L33.3282 30.9352L32.5679 30.2856L21.9613 42.6976L22.7215 43.3473Z" fill="#016A90"/>
<path d="M54.8865 41.2629C55.2511 40.8346 55.6261 40.3955 55.9904 39.9456C58.4347 36.8827 60.3909 34.0715 60.9801 28.1973C61.0951 27.0229 60.7056 25.8549 59.9082 24.9845C59.0954 24.0995 57.9483 23.5964 56.7462 23.5974H37.185C35.9877 23.6021 34.847 24.1069 34.0388 24.9896C33.2442 25.8617 32.855 27.0284 32.967 28.2024C33.5403 34.0927 35.4966 36.8881 37.9887 39.9826C38.3533 40.4325 38.723 40.8716 39.0606 41.3C40.9258 43.4954 42.5336 45.3964 42.5336 47.7847C42.5336 50.1713 40.928 52.0659 39.0645 54.2648M54.8865 41.2629L54.8697 41.2828M54.8865 41.2629C54.8809 41.2696 54.8753 41.2762 54.8697 41.2828M39.0606 54.2695C38.696 54.7032 38.3263 55.1369 37.9887 55.5868C35.4966 58.6551 33.5403 61.4771 32.967 67.3411C32.855 68.5151 33.2442 69.6819 34.0388 70.554C34.8537 71.4227 35.9935 71.9138 37.1851 71.9091H56.7463C57.9494 71.9088 59.0965 71.4036 59.9083 70.517C60.7057 69.6461 61.0952 68.4781 60.9802 67.3041C60.4122 61.4138 58.456 58.6184 55.9638 55.5498C55.5992 55.0999 55.2241 54.6608 54.8919 54.2324C53.0267 52.037 51.4189 50.136 51.4189 47.7477C51.4189 45.3666 53.0171 43.4753 54.8697 41.2828M39.0606 54.2695L39.0645 54.2648M39.0606 54.2695C39.0619 54.2679 39.0632 54.2664 39.0645 54.2648" stroke="#016A90"/>
<path opacity="0.5" d="M37.313 66.613C37.313 66.613 46.1295 62.2917 46.1295 60.1872V48.4071C46.1312 45.5814 45.1002 42.8527 43.2303 40.7334L41.928 39.2608C41.6508 38.9413 41.5874 38.4884 41.7668 38.105C41.9466 37.7218 42.3351 37.4802 42.7584 37.4886H51.1729C51.6005 37.4765 51.9945 37.7194 52.1752 38.107C52.3557 38.4949 52.2882 38.9525 52.0036 39.2716L50.701 40.7335C48.8324 42.8515 47.8014 45.5781 47.8017 48.4018V60.1819C47.8017 62.2649 56.6123 66.6077 56.6123 66.6077C57.0747 66.8112 57.3317 67.3096 57.2298 67.804C57.1276 68.2984 56.6939 68.6542 56.1889 68.6586H37.7416C37.24 68.6512 36.8107 68.2977 36.7078 67.807C36.6052 67.3167 36.8566 66.8206 37.313 66.613Z" fill="#016A90"/>
</svg>
