<svg width="62" height="73" viewBox="0 0 62 73" fill="none" xmlns="http://www.w3.org/2000/svg">
<path d="M38.5974 36.0255C40.6091 35.1548 42.7794 34.7069 44.9734 34.7084C50.2736 34.7075 55.2323 37.3139 58.2174 41.6697C61.2025 46.0254 61.8283 51.5676 59.8889 56.4732C57.949 61.3787 53.6953 65.0129 48.5266 66.181C43.3576 67.3487 37.9422 65.8983 34.0618 62.3079M38.5974 36.0255V4.93209C38.5954 3.88933 38.1776 2.88979 37.4356 2.15289C36.694 1.41592 35.6884 1.00099 34.6398 1H11.1284C10.0798 1.00197 9.07468 1.41789 8.33366 2.15583C7.59208 2.89378 7.17532 3.89381 7.17432 4.93655V46.8324H4.4211C3.51341 46.8329 2.64328 47.1913 2.00212 47.8289C1.36041 48.4671 1 49.3323 1 50.2345C1 51.1366 1.35992 52.0019 2.00162 52.64L20.4657 71.0015C21.1099 71.6411 21.983 72 22.8937 72C23.8039 72 24.677 71.6411 25.3212 71.0015L34.0618 62.3079M38.5974 36.0255C37.7311 36.4325 37.2603 36.6892 36.4298 37.1671C32.5409 39.5997 29.8911 43.5765 29.1535 48.0863C28.4164 52.5956 29.6632 57.2027 32.5766 60.7351C33.0849 61.3806 33.4159 61.7273 34.0618 62.3079" stroke="#016A90"/>
<path opacity="0.5" d="M38.5752 58.4H41.9632V53.472H44.5812L47.9252 58.4H51.8852L48.1232 52.9C50.0812 52.174 51.4232 50.612 51.4232 48.126C51.4232 46.63 50.9612 45.42 50.1032 44.562C49.0912 43.55 47.5732 43 45.6152 43H38.5752V58.4ZM41.9632 50.48V46.058H45.3292C46.9792 46.058 47.9912 46.806 47.9912 48.258C47.9912 49.6 47.0452 50.48 45.3952 50.48H41.9632Z" fill="#016A90"/>
<path d="M12.5348 31.8226L33.9563 10.7541M12.1533 15.3018C12.1533 18.1163 14.4814 20.406 17.3431 20.406C20.2047 20.406 22.5326 18.1163 22.5326 15.3018C22.5326 12.4873 20.2047 10.1975 17.3431 10.1975C14.4814 10.1975 12.1533 12.4873 12.1533 15.3018ZM28.9636 21.9893C26.1019 21.9893 23.7738 24.279 23.7738 27.0935C23.7738 29.908 26.1019 32.1975 28.9636 32.1975C31.8252 32.1975 34.1533 29.9078 34.1533 27.0933C34.1533 24.2788 31.8252 21.9893 28.9636 21.9893Z" stroke="#016A90"/>
</svg>
