<svg width="64" height="65" viewBox="0 0 64 65" fill="none" xmlns="http://www.w3.org/2000/svg">
<path d="M1 34.4584L5.8496 39.2697C6.87242 39.4533 7.84238 39.5799 8.76927 39.6584L1 32.0384L1 34.4584Z" fill="#80B5C8"/>
<path d="M2.81272 30.1998C2.64639 30.1553 2.16909 30.0474 2 30L12.0878 39.7434C13.0528 39.7101 13.9767 39.6272 14.8747 39.5086L6.20283 30.949C5.13543 30.7664 4.00936 30.5203 2.81272 30.1998Z" fill="#80B5C8"/>
<path d="M9.5 31.3331L17.3696 39.0866C18.1703 38.9249 18.9611 38.7435 19.7541 38.5534L12.5 31.3458C11.5448 31.3949 10.5501 31.3955 9.5 31.3331Z" fill="#80B5C8"/>
<path d="M15 31.105L22 38.005C22.8322 37.8024 23.6791 37.6016 24.5538 37.4148L17.6795 30.6273C16.8013 30.8134 15.9137 30.9777 15 31.105Z" fill="#80B5C8"/>
<path d="M20.949 29.8604C20.6314 29.9385 20.3153 30.0163 20 30.0929L26.9387 36.9625C27.7682 36.8271 28.6289 36.7113 29.5303 36.6238L22.3542 29.5174C21.8815 29.631 21.4144 29.7459 20.9506 29.86L20.949 29.8604Z" fill="#80B5C8"/>
<path d="M32.291 36.4562C32.3694 36.4543 32.4481 36.4526 32.5272 36.4511C33.5793 36.4315 34.5663 36.4521 35.5 36.5042L27.4147 28.5001C26.4755 28.6391 25.5785 28.8045 24.7107 28.9848L32.291 36.4562Z" fill="#80B5C8"/>
<path d="M32.4717 28.0784C31.5806 28.095 30.7302 28.1406 29.914 28.2092L38.6092 36.8074C39.9494 36.9941 41.1847 37.2373 42.3656 37.5001L32.8348 28.0732C32.7146 28.0745 32.5936 28.0762 32.4717 28.0784Z" fill="#80B5C8"/>
<path d="M35.8964 28.1567L46.2335 38.4127C47.3945 38.6817 48.5578 38.9274 49.7781 39.11L39.0696 28.5001C38.0755 28.351 37.0249 28.2314 35.8964 28.1567Z" fill="#80B5C8"/>
<path d="M44.7732 29.6844C44.0943 29.5209 43.4079 29.3555 42.7031 29.1962L53 39.4122C53.9438 39.446 54.9377 39.4329 56 39.3593L46.6988 30.1392C46.058 29.994 45.4197 29.8402 44.7746 29.6848L44.7732 29.6844Z" fill="#80B5C8"/>
<path d="M49.7781 30.7336L58.2485 39.1239C59.0099 39.0184 59.8061 38.8831 60.6422 38.7141L53 31.0357C51.8635 30.9962 50.8006 30.8874 49.7781 30.7336Z" fill="#80B5C8"/>
<path d="M62.9994 37.8744C63.0002 37.8518 63.0002 37.8285 62.9994 37.8047L63 35.0001L58.6566 30.6744C57.7215 30.8182 56.839 30.9168 56 30.9772L62.9994 37.8744Z" fill="#80B5C8"/>
<path d="M37.8319 36.0477L30.5238 28.8172M62.7472 38.2375L62.7484 38.2369C62.9324 38.1871 62.9929 38.0509 62.9994 37.8744M62.9994 37.8744C63.0002 37.8518 63.0002 37.8285 62.9994 37.8047L63 35.0001L58.6566 30.6744C57.7215 30.8182 56.839 30.9168 56 30.9772L62.9994 37.8744ZM32.5272 36.4511C32.4481 36.4526 32.3694 36.4543 32.291 36.4562L24.7107 28.9848C25.5785 28.8045 26.4755 28.6391 27.4147 28.5001L35.5 36.5042C34.5663 36.4521 33.5793 36.4315 32.5272 36.4511ZM20.949 29.8604C20.6314 29.9385 20.3153 30.0163 20 30.0929L26.9387 36.9625C27.7682 36.8271 28.6289 36.7113 29.5303 36.6238L22.3542 29.5174C21.8815 29.631 21.4144 29.7459 20.9506 29.86L20.949 29.8604ZM32.4717 28.0784C31.5806 28.095 30.7302 28.1406 29.914 28.2092L38.6092 36.8074C39.9494 36.9941 41.1847 37.2373 42.3656 37.5001L32.8348 28.0732C32.7146 28.0745 32.5936 28.0762 32.4717 28.0784ZM44.7746 29.6848C45.4197 29.8402 46.058 29.994 46.6988 30.1392L56 39.3593C54.9377 39.4329 53.9438 39.446 53 39.4122L42.7031 29.1962C43.4079 29.3555 44.0943 29.5209 44.7732 29.6844L44.7746 29.6848ZM1 34.4584L5.8496 39.2697C6.87243 39.4533 7.84238 39.5799 8.76927 39.6584L1 32.0384L1 34.4584ZM2.81272 30.1998C2.64639 30.1553 2.16909 30.0474 2 30L12.0878 39.7434C13.0528 39.7101 13.9767 39.6272 14.8747 39.5086L6.20283 30.949C5.13543 30.7664 4.00936 30.5203 2.81272 30.1998ZM9.5 31.3331L17.3696 39.0866C18.1703 38.9249 18.9611 38.7435 19.7541 38.5534L12.5 31.3458C11.5448 31.3949 10.5501 31.3955 9.5 31.3331ZM15 31.105L22 38.005C22.8322 37.8024 23.6791 37.6016 24.5538 37.4148L17.6795 30.6273C16.8013 30.8134 15.9137 30.9777 15 31.105ZM35.8964 28.1567L46.2335 38.4127C47.3945 38.6817 48.5578 38.9274 49.7781 39.11L39.0696 28.5001C38.0755 28.351 37.0249 28.2314 35.8964 28.1567ZM49.7781 30.7336L58.2485 39.1239C59.0099 39.0184 59.8061 38.8831 60.6422 38.7141L53 31.0357C51.8635 30.9962 50.8006 30.8874 49.7781 30.7336Z" stroke="#80B5C8" stroke-width="0.5"/>
<path d="M32.5272 36.451C32.4481 36.4525 32.3694 36.4542 32.291 36.4561C31.3264 36.4798 30.409 36.5384 29.5303 36.6237C28.6289 36.7113 27.7682 36.827 26.9387 36.9624C26.116 37.0967 25.3241 37.2503 24.5538 37.4147C23.6791 37.6015 22.8322 37.8024 22 38.005C21.7136 38.0747 21.4289 38.1446 21.1454 38.2143C20.6793 38.3288 20.2163 38.4425 19.7541 38.5533C18.961 38.7434 18.1703 38.9248 17.3696 39.0865C16.5526 39.2516 15.7252 39.3961 14.8747 39.5085C13.9767 39.6272 13.0528 39.71 12.0878 39.7434C11.037 39.7797 9.9373 39.7572 8.76927 39.6583C7.84238 39.5798 6.87242 39.4532 5.8496 39.2696C4.43341 39.0154 2.91586 38.6519 1.27091 38.1557C1.11512 38.1091 1 37.9979 1 37.8278L1 34.4583L1 32.0383L1 30.1394C1 30.0479 1.05178 29.9276 1.11696 29.8632M32.5272 36.451C34.8242 36.4084 36.811 36.5569 38.6092 36.8074C39.9494 36.994 41.1847 37.2372 42.3656 37.5C43.151 37.6748 43.9124 37.8582 44.6644 38.0394C45.1903 38.1661 45.7117 38.2918 46.2335 38.4127C47.3945 38.6817 48.5578 38.9274 49.7781 39.1099C50.8012 39.2629 51.8644 39.3715 53 39.4122C53.9438 39.446 54.9377 39.4328 56 39.3593C56.7164 39.3097 57.4641 39.2326 58.2485 39.1239C59.0099 39.0183 59.8061 38.883 60.6422 38.7141C61.3169 38.5778 62.0177 38.4196 62.7472 38.2375L62.7484 38.2369C62.9324 38.187 62.9929 38.0509 62.9994 37.8743C63.0002 37.8518 63.0002 37.8285 62.9994 37.8047L63 35L62.9994 30.1391C62.9994 30.0399 62.955 29.9507 62.8847 29.8908M32.5272 36.451C33.5793 36.4315 34.5663 36.4521 35.5 36.5042M1.11696 29.8632L13.5726 17.4988M1.11696 29.8632L1.95257 29.96C2.07227 29.9947 2.19128 30.0286 2.30961 30.0618C2.4787 30.1093 2.64639 30.1552 2.81272 30.1998C4.00936 30.5203 5.13543 30.7664 6.20283 30.9489C7.36648 31.1479 8.46039 31.2713 9.5 31.333C10.5501 31.3954 11.5448 31.3949 12.5 31.3458C13.3616 31.3015 14.191 31.2177 15 31.105C15.9137 30.9776 16.8013 30.8133 17.6795 30.6273C18.4564 30.4627 19.226 30.281 20 30.0929C20.3153 30.0162 20.6314 29.9385 20.949 29.8603L20.9506 29.8599C21.4144 29.7458 21.8815 29.6309 22.3542 29.5174C23.1214 29.3331 23.9034 29.1525 24.7107 28.9848C25.5785 28.8045 26.4755 28.6391 27.4147 28.5C28.2145 28.3816 29.0449 28.2823 29.914 28.2092C30.7302 28.1405 31.5806 28.095 32.4717 28.0784C32.5936 28.0761 32.7146 28.0744 32.8348 28.0732C33.9204 28.0622 34.9365 28.0932 35.8964 28.1567C37.0249 28.2313 38.0755 28.3509 39.0696 28.5C40.3605 28.6936 41.5561 28.9369 42.7031 29.1962C43.4079 29.3555 44.0943 29.5208 44.7732 29.6844L44.7746 29.6847C45.4197 29.8402 46.058 29.9939 46.6988 30.1391C47.7066 30.3675 48.7207 30.5746 49.7781 30.7336C50.8006 30.8874 51.8635 30.9961 53 31.0357C53.943 31.0685 54.9366 31.0536 56 30.9771C56.839 30.9168 57.7215 30.8181 58.6566 30.6743C59.7192 30.511 60.8498 30.2893 62.0622 29.9994L62.8847 29.8908M48.9806 16.0547L62.8847 29.8908M30.4679 48.102C35.5512 49.3947 39.8504 52.2907 42.8312 56.6028L41.823 57.5198C40.5342 58.5759 40.8841 59.7088 42.3731 60.1844L51.5127 63.1034C53.1571 63.6284 53.8782 62.6643 53.5699 61.0882L51.5891 50.6529C51.3921 49.6147 50.2105 49.2602 49.5361 50.067L48.6402 50.9122C43.4224 46.0646 35.3295 43.6579 28.2946 44.0444C22.7526 44.3489 17.2672 46.3444 13.0166 50.6785L13.0157 50.6798C11.3866 52.341 9.96509 54.3342 8.88336 56.4436C8.04015 58.0878 7.41283 59.8015 6.97414 61.594M30.4679 48.102C26.8349 48.9477 23.8579 50.5673 21.6805 52.9648C19.5577 55.3024 18.1894 58.3864 17.7082 62.2206C17.5459 63.5131 16.8026 63.9814 15.5475 63.9833L8.55283 63.9998C6.74621 64.0176 6.60988 63.0827 6.97414 61.594M30.4679 48.102C19.2293 45.2442 10.5 50.5 6.97414 61.594M30.4984 16.8977C25.4151 15.6051 21.116 12.7091 18.1351 8.39702L19.1434 7.48C20.2482 6.57434 20.2228 5.31526 18.7615 4.86933L9.35977 1.86664C7.9359 1.43577 6.9924 2.41039 7.38025 3.82597L9.75953 14.082C9.9916 15.0814 11.0549 15.4144 11.8024 14.6057L12.3298 14.0907C20.918 22.0641 36.4404 23.5665 45.8445 16.2052C49.9159 13.0181 52.7746 8.38173 53.9922 3.40603M30.4984 16.8977C37.9429 15.1652 42.3175 10.2754 43.2582 2.77945C43.4204 1.48693 44.1638 1.01859 45.4189 1.01671L52.4135 1.00025C54.2202 0.982413 54.3565 1.91727 53.9922 3.40603M30.4984 16.8977C40.5 19.441 51.2051 14.7955 53.9922 3.40603M37.1085 11.0246C33.3984 10.2741 26.9559 10.028 23.3067 11.0296" stroke="#016A90"/>
</svg>
