<svg width="30" height="30" viewBox="0 0 30 30" fill="none" xmlns="http://www.w3.org/2000/svg">
<path d="M2 1H28M5.18909 1V28.6691C5.19013 28.8044 5.26396 28.9258 5.37594 28.9761C5.48813 29.0263 5.61608 28.9956 5.70007 28.8984L7.86488 26.4709L10.0295 28.8984C10.0855 28.9633 10.1626 29 10.2431 29C10.3237 29 10.4009 28.9633 10.4569 28.8984L12.6215 26.4709L14.7863 28.8984C14.8423 28.9633 14.9194 29 14.9999 29C15.0803 29 15.1575 28.9633 15.2135 28.8984L17.3783 26.4709L19.5428 28.8984C19.5988 28.9633 19.676 29 19.7566 29C19.8371 29 19.9143 28.9633 19.9702 28.8984L22.1348 26.4709L24.2996 28.8984C24.3836 28.9956 24.5116 29.0263 24.6238 28.9761C24.7358 28.9258 24.8096 28.8044 24.8106 28.6691V1M9.05398 7.78196H14.9999M9.05398 11.6054H20.9459M9.05398 15.4389H20.9459M9.05398 19.2624H14.9999" stroke="black"/>
</svg>
