<svg width="30" height="30" viewBox="0 0 30 30" fill="none" xmlns="http://www.w3.org/2000/svg">
<path d="M14.1352 13.7675H4.86788C4.70576 13.7675 4.57447 13.8982 4.57447 14.0595V23.2824C4.57447 23.4437 4.70576 23.5744 4.86788 23.5744H14.1352C14.2973 23.5744 14.4286 23.4437 14.4286 23.2824V14.0521C14.4286 13.8908 14.2973 13.7675 14.1352 13.7675Z" stroke="black"/>
<path d="M16.6796 13.7675H25.9469C26.1091 13.7675 26.2403 13.8908 26.2403 14.0521V23.2824C26.2403 23.4437 26.109 23.5744 25.9469 23.5744H16.6796C16.5175 23.5744 16.3862 23.4437 16.3862 23.2824V14.0595C16.3862 13.8982 16.5175 13.7675 16.6796 13.7675Z" stroke="black"/>
<path d="M10.2737 2C10.1116 2 9.98029 2.13807 9.98029 2.29942V11.5222C9.98029 11.6836 10.1116 11.8142 10.2737 11.8142H19.541C19.7031 11.8142 19.8344 11.6836 19.8344 11.5222V2.29201C19.8344 2.13066 19.7031 2 19.541 2H10.2737Z" stroke="black"/>
<path d="M1 25.4802C1 25.3165 1.13336 25.1838 1.29787 25.1838H28.7021C28.8666 25.1838 29 25.3165 29 25.4802V28C29 28.1637 28.8666 28.2964 28.7021 28.2964H1.29787C1.13336 28.2964 1 28.1637 1 28V25.4802Z" stroke="black"/>
</svg>
