<svg width="30" height="30" viewBox="0 0 30 30" fill="none" xmlns="http://www.w3.org/2000/svg">
<path d="M3.95128 8.67874C4.09713 8.41439 4.25557 8.16251 4.41881 7.90991L3.81102 7.30664C3.77165 7.26872 3.74011 7.22328 3.7182 7.17295C3.69629 7.12262 3.68444 7.06837 3.68336 7.01338C3.68227 6.95839 3.69196 6.90375 3.71186 6.85257C3.73177 6.80139 3.7615 6.75471 3.79933 6.71522L6.73314 3.68715C6.7714 3.64811 6.81692 3.6171 6.86707 3.59595C6.91722 3.57479 6.97102 3.5639 7.02535 3.5639C7.07969 3.5639 7.13349 3.57479 7.18364 3.59595C7.23379 3.6171 7.27931 3.64811 7.31756 3.68715L7.93703 4.30223C9.3331 3.33613 10.9295 2.66258 12.6476 2.31506V1.4161C12.6466 1.31769 12.6801 1.2221 12.7422 1.14631C12.8042 1.07053 12.8908 1.01942 12.9865 1.00209C13.0137 0.999336 13.0412 0.999289 13.0684 1.00204H17.2531C17.3077 1.00079 17.362 1.01056 17.4129 1.03078C17.4637 1.05099 17.5101 1.08125 17.5492 1.11979C17.5884 1.15833 17.6196 1.20437 17.641 1.25524C17.6624 1.30611 17.6736 1.36077 17.6739 1.41606V2.30321C19.2349 2.61836 20.6858 3.22215 21.9868 4.05381L22.5946 3.40323C22.6321 3.3634 22.677 3.33146 22.7267 3.30929C22.7765 3.28712 22.8301 3.27516 22.8844 3.27406C22.9387 3.27296 22.9927 3.28277 23.0433 3.30292C23.0939 3.32306 23.14 3.35314 23.179 3.39142L26.218 6.31306C26.2574 6.35098 26.2889 6.39642 26.3108 6.44675C26.3328 6.49708 26.3446 6.55131 26.3457 6.6063C26.3468 6.66128 26.3371 6.71596 26.3172 6.76713C26.2973 6.81831 26.2675 6.86499 26.2297 6.90448L25.6219 7.54321C26.6354 8.99498 27.347 10.6574 27.7025 12.4638H28.5908C28.6991 12.4644 28.8028 12.5083 28.8794 12.5858C28.956 12.6633 28.9993 12.7682 28.9999 12.8778V17.1122C29.0011 17.1675 28.9915 17.2224 28.9715 17.2739C28.9515 17.3253 28.9216 17.3723 28.8835 17.4119C28.8455 17.4515 28.8 17.4831 28.7497 17.5048C28.6994 17.5264 28.6454 17.5377 28.5908 17.538H27.7025C27.3782 19.1776 26.7632 20.7036 25.8907 22.0567L26.5102 22.6836C26.5496 22.7215 26.5811 22.7669 26.603 22.8172C26.6249 22.8676 26.6368 22.9218 26.6379 22.9768C26.6389 23.0318 26.6293 23.0865 26.6094 23.1376C26.5894 23.1888 26.5597 23.2355 26.5219 23.275L23.5881 26.303C23.5498 26.3421 23.5043 26.3731 23.4541 26.3942C23.404 26.4154 23.3502 26.4263 23.2959 26.4263C23.2415 26.4263 23.1877 26.4154 23.1376 26.3942C23.0874 26.3731 23.0419 26.3421 23.0037 26.303L22.3842 25.6879C20.9881 26.6544 19.3925 27.3393 17.6736 27.687V28.5741C17.6749 28.6303 17.6649 28.6863 17.6442 28.7386C17.6235 28.7908 17.5926 28.8383 17.5532 28.8781C17.5139 28.9179 17.467 28.9492 17.4154 28.9701C17.3638 28.9911 17.3085 29.0012 17.2529 28.9999H13.0682C13.0126 29.0012 12.9573 28.9911 12.9057 28.9701C12.8541 28.9492 12.8072 28.9179 12.7678 28.8781C12.7285 28.8383 12.6976 28.7908 12.6769 28.7386C12.6562 28.6863 12.6462 28.6303 12.6474 28.5741V27.687C10.9679 27.3474 9.39214 26.7152 8.01881 25.7826M8.97751 8.30018C9.38674 7.91312 9.82338 7.56498 10.2983 7.25928C11.6805 6.36952 13.3241 5.85589 15.0788 5.83988L15.231 5.83941C20.157 5.8784 24.1437 9.90043 24.2077 14.8763V15.1131C24.143 20.1132 20.12 24.1617 15.1607 24.1617C14.212 24.1617 13.2978 24.01 12.4373 23.7359M2.55454 10.3819C1.70104 10.3819 1 11.0795 1 11.9433V15.267C1 16.1307 1.70108 16.8402 2.55454 16.8402H5.87406C6.72756 16.8402 7.4286 16.1307 7.4286 15.267V11.9433C7.4286 11.0795 6.72752 10.3819 5.87406 10.3819H2.55454ZM11.0629 10.3819C10.2094 10.3819 9.50832 11.0795 9.50832 11.9433V15.267C9.50832 16.1307 10.2094 16.8402 11.0629 16.8402H14.3824C15.2359 16.8402 15.9369 16.1307 15.9369 15.267V11.9433C15.9369 11.0795 15.2358 10.3819 14.3824 10.3819H11.0629ZM2.55454 18.93C1.70104 18.93 1 19.6276 1 20.4913V23.8151C1 24.6788 1.70108 25.3883 2.55454 25.3883H5.87406C6.72756 25.3883 7.4286 24.6788 7.4286 23.8151V20.4913C7.4286 19.6276 6.72752 18.93 5.87406 18.93H2.55454Z" stroke="black"/>
</svg>
