<svg width="30" height="30" viewBox="0 0 30 30" fill="none" xmlns="http://www.w3.org/2000/svg">
<path d="M5.04448 11.1741H24.9555M16.7889 19.1847L17.8779 18.8804L19.375 14.8586C19.4154 14.7524 19.5063 14.6721 19.6083 14.6522L19.6077 14.6522C19.7429 14.6374 19.8766 14.6905 19.9578 14.8803L20.9688 17.9891L22.1939 15.5215C22.3078 15.3002 22.6557 15.3209 22.7481 15.5543L23.8857 18.4129L24.8775 18.1411M5.04448 15.348H15.6222M1.93339 7C1.44749 7 1 7.38796 1 7.93485V22.0542C1 22.6009 1.44727 23 1.93339 23H28.0666C28.5525 23 29 22.6011 29 22.0542V7.93485C29 7.38821 28.5527 7 28.0666 7H1.93339Z" stroke="black"/>
</svg>
