<svg width="30" height="30" viewBox="0 0 30 30" fill="none" xmlns="http://www.w3.org/2000/svg">
<path d="M23.7054 1H1.40442C1.18092 1 1 1.18498 1 1.4135V28.5865C1 28.815 1.18092 29 1.40442 29H23.7054C23.9289 29 24.1098 28.815 24.1101 28.5865V21.9705M6.01942 18.9074C6.2667 18.9402 6.75365 20.0143 7.28518 20.4021C7.58858 20.1655 7.86887 19.222 7.93027 19.1917C8.38889 18.563 9.08512 18.0619 10.1303 18.3231C11.1178 18.5702 11.6602 19.2338 12.4819 19.8192C12.993 20.1834 13.6546 20.6546 14.0587 20.7687C13.997 20.6188 13.9177 20.4521 13.8771 20.3667L13.8329 20.2742C13.474 19.5241 13.2558 19.005 13.4836 18.6317C13.5869 18.4619 13.7678 18.3643 13.9798 18.3643C15.023 18.3643 17.151 19.6359 18.8889 20.7687M18.8889 20.7687L18.1056 17.457C18.0946 17.3498 18.0975 17.2789 18.2772 16.763M18.8889 20.7687L22.3687 19.3733C22.448 19.3141 22.5739 19.1255 22.6867 18.9394M11.0036 12.9981H4.52425M17.0036 9.09939H4.52425M18.2772 16.763C18.3024 16.6909 18.3309 16.6101 18.3634 16.5193L18.3792 16.4754L18.3806 16.4717C18.3839 16.4622 18.3875 16.4531 18.3911 16.444L24.4142 2.49157C24.4822 2.3336 24.6328 2.23537 24.8081 2.24583C25.2584 2.27284 26.1537 2.38153 27.0897 2.80381C28.0319 3.22912 28.5538 3.74558 28.8341 4.02271L28.8761 4.06423C28.9982 4.18474 29.0342 4.37039 28.9655 4.52904L22.9372 18.4946C22.9322 18.5061 22.9269 18.5172 22.921 18.5284C22.8893 18.5873 22.794 18.7622 22.6867 18.9394M18.2772 16.763L22.6867 18.9394" stroke="black"/>
</svg>
