<svg width="30" height="30" viewBox="0 0 30 30" fill="none" xmlns="http://www.w3.org/2000/svg">
<path d="M24.3917 28.5865L24.8917 28.5872V28.5865H24.3917ZM11.9507 18.1407C11.7938 17.9135 11.4823 17.8565 11.2551 18.0135C11.0279 18.1704 10.971 18.4818 11.1279 18.709L11.9507 18.1407ZM16.0842 25.0049L15.6728 25.289L16.0306 25.807L16.4542 25.3412L16.0842 25.0049ZM29.3699 11.1364C29.5557 10.9321 29.5407 10.6158 29.3364 10.4301C29.1321 10.2443 28.8158 10.2593 28.6301 10.4636L29.3699 11.1364ZM23.9979 28.5H1.39354V29.5H23.9979V28.5ZM1.39354 28.5C1.43089 28.5 1.46075 28.5168 1.4774 28.5342C1.49362 28.5513 1.5 28.5709 1.5 28.5865H0.5C0.5 29.0676 0.876892 29.5 1.39354 29.5V28.5ZM1.5 28.5865V1.4135H0.5V28.5865H1.5ZM1.5 1.4135C1.5 1.42909 1.49362 1.44872 1.4774 1.46576C1.46075 1.48325 1.43089 1.5 1.39354 1.5V0.5C0.876887 0.5 0.5 0.932434 0.5 1.4135H1.5ZM1.39354 1.5H23.9979V0.5H1.39354V1.5ZM23.8917 21.9705V28.5865H24.8917V21.9705H23.8917ZM23.8917 28.5858C23.8918 28.5704 23.8981 28.551 23.9142 28.5341C23.9307 28.5168 23.9605 28.5 23.9979 28.5V29.5C24.5146 29.5 24.8911 29.0676 24.8917 28.5872L23.8917 28.5858ZM17.4763 14.3228H5.33267V15.3228H17.4763V14.3228ZM17.4763 10.4241H5.33267V11.4241H17.4763V10.4241ZM17.4763 6.52532H5.33267V7.52532H17.4763V6.52532ZM24.8917 1.4135C24.8917 0.931906 24.514 0.5 23.9979 0.5V1.5C23.9606 1.5 23.9309 1.48331 23.9144 1.46596C23.8982 1.44902 23.8917 1.42935 23.8917 1.4135H24.8917ZM8.81865 11.4241H20.9623V10.4241H8.81865V11.4241ZM8.81865 7.52532H20.9623V6.52532H8.81865V7.52532ZM24.8917 6.95V1.4135H23.8917V6.95H24.8917ZM11.1279 18.709L15.6728 25.289L16.4956 24.7207L11.9507 18.1407L11.1279 18.709ZM16.4542 25.3412L29.3699 11.1364L28.6301 10.4636L15.7143 24.6685L16.4542 25.3412Z" fill="black"/>
</svg>
