<svg width="30" height="30" viewBox="0 0 30 30" fill="none" xmlns="http://www.w3.org/2000/svg">
<path d="M9.74952 24.3709H3.47764C3.31341 24.3707 3.16094 24.2856 3.07337 24.1453C2.98603 24.005 2.97599 23.8294 3.04689 23.68V23.6798L5.0249 19.5007V11.6474C5.0249 6.75636 8.77496 2.75776 13.5563 2.37914L13.5558 2.37915M9.74952 24.3709V24.4351C9.74952 26.9561 11.7894 29 14.3007 29C16.812 29 18.8527 26.9561 18.8527 24.4351V24.3709M9.74952 24.3709H18.8527M18.8527 24.3709H25.1246C25.2888 24.3707 25.4413 24.2856 25.5287 24.1453C25.616 24.005 25.6263 23.8294 25.5554 23.68L23.5774 19.5006V15.2678M21.0392 1C17.7549 1 15.0822 3.68564 15.0822 6.98649C15.0822 10.2873 17.7551 12.9691 21.0392 12.9691C24.3235 12.9691 27 10.2872 27 6.98649C27 3.68581 24.3235 1 21.0392 1Z" stroke="black"/>
</svg>
