<svg width="30" height="30" viewBox="0 0 30 30" fill="none" xmlns="http://www.w3.org/2000/svg">
<path d="M2.93331 7.58101L21.8735 1.1557C21.8735 1.1557 23.5098 0.367473 23.5098 2.33804V5.09683M3.7451 7.46166H26.2549C27.771 7.46166 29 8.66704 29 10.154V26.3077C29 27.7946 27.771 29 26.2549 29H3.7451C2.22902 29 1 27.7946 1 26.3077V10.154C1 8.66704 2.22902 7.46166 3.7451 7.46166ZM25.7059 18.5C25.7059 19.2434 25.0914 19.8461 24.3333 19.8461C23.5753 19.8461 22.9608 19.2434 22.9608 18.5C22.9608 17.7565 23.5753 17.1538 24.3333 17.1538C25.0914 17.1538 25.7059 17.7565 25.7059 18.5Z" stroke="black"/>
</svg>
