<svg width="32" height="32" viewBox="0 0 32 32" fill="none" xmlns="http://www.w3.org/2000/svg">
<path d="M1 16.0003L1.00023 15.9992C1.00039 12.0079 2.54014 8.27232 5.34225 5.44782M1 16.0003L1.00028 16.0017C1.00084 20.123 2.67431 23.8592 5.37511 26.5727M1 16.0003L30.9998 15.9992M15.9986 30.9992L16.0025 31L16.0063 30.9992M15.9986 30.9992L16.0027 1C15.6693 1 15.3374 1.01086 15.0075 1.03242M15.9986 30.9992C15.6781 30.9991 15.36 30.9889 15.0444 30.9689M10.1109 7.78968C8.58999 7.28697 7.12271 6.58944 5.74079 5.70666L5.34225 5.44782M10.1109 7.78968C9.38553 10.1645 8.99385 12.912 8.97379 15.7696L8.97384 16.2311C8.99399 19.0869 9.38545 21.8338 10.1104 24.21M10.1109 7.78968L10.5504 7.93075C12.2441 8.44535 13.9992 8.71814 15.7717 8.74006H16.2283C18.0008 8.71814 19.7559 8.44535 21.4496 7.93075L21.8891 7.78968M10.1109 7.78968L10.2476 7.34883C11.1725 4.53977 12.5111 2.53399 14.0287 1.59685L15.0075 1.03242M10.1104 24.21C8.58959 24.7128 7.12254 25.4119 5.74321 26.2916L5.37511 26.5727M10.1104 24.21L10.5504 24.0708C12.2427 23.5552 13.9964 23.2834 15.7717 23.2616H16.2283C18.0036 23.2834 19.7573 23.5552 21.4496 24.0708L21.8896 24.21M10.1104 24.21L10.247 24.6511C11.1706 27.4569 12.5074 29.4613 14.0235 30.3995L15.0444 30.9689M30.9998 15.9992L31 16.0003L30.9997 16.0017C30.9992 20.1185 29.3293 23.8511 26.6337 26.5638M30.9998 15.9992C30.9996 12.0057 29.4581 8.26812 26.653 5.44307M16.0014 30.9992L15.9975 31L15.9937 30.9992M16.0014 30.9992L15.9973 1C16.3307 1 16.6626 1.01086 16.9925 1.03242M16.0014 30.9992C16.3219 30.9991 16.64 30.9889 16.9556 30.9689M21.8891 7.78968C23.41 7.28697 24.8773 6.58944 26.2592 5.70666L26.653 5.44307M21.8891 7.78968C22.6145 10.1645 23.0062 12.912 23.0262 15.7696L23.0262 16.2311C23.006 19.0869 22.6146 21.8338 21.8896 24.21M21.8891 7.78968L21.7524 7.34883C20.8275 4.53977 19.4889 2.53399 17.9713 1.59685L16.9925 1.03242M21.8896 24.21C23.4104 24.7128 24.8775 25.4119 26.2568 26.2916L26.6337 26.5638M21.8896 24.21L21.753 24.6511C20.8294 27.4569 19.4926 29.4613 17.9765 30.3995L16.9556 30.9689M5.34225 5.44782C5.40923 5.3803 5.47694 5.3133 5.54537 5.24682C8.12127 2.74071 11.4501 1.26486 15.0075 1.03242M26.653 5.44307C26.5876 5.37715 26.5214 5.31174 26.4546 5.24682C23.8787 2.74071 20.5499 1.26486 16.9925 1.03242M5.37511 26.5727C5.41992 26.6177 5.46501 26.6624 5.51038 26.7069C5.51162 26.7089 5.51162 26.7113 5.51292 26.7133C5.53529 26.7476 5.56532 26.7739 5.59924 26.7916C8.0835 29.1864 11.3871 30.7369 15.0444 30.9689M26.6337 26.5638C26.586 26.6118 26.538 26.6595 26.4896 26.7069C26.4884 26.7089 26.4884 26.7113 26.4871 26.7133C26.4647 26.7476 26.4347 26.7739 26.4008 26.7916C23.9165 29.1864 20.6129 30.7369 16.9556 30.9689" stroke="#0670EB"/>
</svg>
